# xmcd
#
# Track frame offsets:
#	150
#	11435
#	22479
#	35043
#	44614
#	54652
#	66936
#	77511
#	88981
#	100662
#	111932
#	124604
#	135602
#	145888
#	156537
#	170430
#	184613
#	196430
#	206624
#	217904
#	227922
#	239353
#	252873
#	262295
#	275745
#
# Disc length: 3809 seconds
#
# Revision: 0
# Processed by: cddbd v1.5.2PL0 Copyright (c) Steve Scherf et al.
# Submitted via: dBpowerAMP V4.0
#
DISCID=7f0edf19
DTITLE=Various Artist - Think It Over Boys
DYEAR=1900
DGENRE=Country
TTITLE0=Let me Love You - Tommy Collins
TTITLE1=I Always Get A Souvenir - 
TTITLE2=High On A Hilltop - 
TTITLE3=Let Down - 
TTITLE4=Boob I Lak - 
TTITLE5=No Love Have I - 
TTITLE6=That's The Way Love Is - 
TTITLE7=I Love You More And More Each Day - 
TTITLE8=I'll Be Gone - 
TTITLE9=There'll Be No Other - 
TTITLE10=Wait A Little Longer - 
TTITLE11=What Kind Of A Sweetheart Are You - 
TTITLE12=I Wish I Had Died In My Cradle - 
TTITLE13=Love A Me S'il Plait - 
TTITLE14=Those Old Love Letters From You - 
TTITLE15=A Man We All Ought To Know - 
TTITLE16=Feet Of The Traveler - 
TTITLE17=Smooth Sailin' - 
TTITLE18=I'll Always Speak Well Of You - 
TTITLE19=Think It Over Boys - 
TTITLE20=I Think Of You Yet - 
TTITLE21=Are You Ready To Go - 
TTITLE22=Upon This Rock - 
TTITLE23=I Guess I'm Crazy - 
TTITLE24=Untied. - 
EXTD=
EXTT0=
EXTT1=
EXTT2=
EXTT3=
EXTT4=
EXTT5=
EXTT6=
EXTT7=
EXTT8=
EXTT9=
EXTT10=
EXTT11=
EXTT12=
EXTT13=
EXTT14=
EXTT15=
EXTT16=
EXTT17=
EXTT18=
EXTT19=
EXTT20=
EXTT21=
EXTT22=
EXTT23=
EXTT24=
PLAYORDER=
